<svg width="128" height="128" viewBox="0 0 128 128" fill="none" xmlns="http://www.w3.org/2000/svg">
<path d="M64 124C97.1371 124 124 97.1371 124 64C124 30.8629 97.1371 4 64 4C30.8629 4 4 30.8629 4 64C4 97.1371 30.8629 124 64 124Z" fill="#A259FF"/>
<path opacity="0.3" d="M64 112C90.5097 112 112 90.5097 112 64C112 37.4903 90.5097 16 64 16C37.4903 16 16 37.4903 16 64C16 90.5097 37.4903 112 64 112Z" fill="#356CB6"/>
<path d="M64 124C79.4895 124.017 94.3813 118.023 105.54 107.28C104.54 84.8499 101.6 51.7899 92.89 32.0999C88.06 21.1799 76.74 13.8799 64 13.8799C51.26 13.8799 39.35 20.8799 35.11 32.0999C27.58 51.9299 24.35 85.3299 23 107.76C34.0954 118.204 48.7623 124.014 64 124Z" fill="#393C54"/>
<path d="M84.1299 36.1299C80.6099 27.6499 73.6499 23.3099 64.3899 23.1299H63.6099C54.3499 23.3499 47.3899 27.6899 43.8699 36.1299C40.2399 44.8399 39.0399 57.8999 43.8699 75.3199C48.5599 92.3199 54.4099 95.8099 63.6099 95.9899H64.3899C73.5899 95.8099 79.3899 92.2699 84.1299 75.3199C88.9999 57.8999 87.7599 44.8399 84.1299 36.1299Z" fill="white"/>
<path d="M77.5801 52.8301H81.9901" stroke="#393C54" stroke-width="5.51" stroke-miterlimit="10" stroke-linecap="round"/>
<path d="M68.5 88.0001C65.5161 88.44 62.4839 88.44 59.5 88.0001C58.25 87.6701 57 86.8801 57 85.5001C57 84.1201 58.2 83.3701 59.5 83.0001C62.4626 82.3301 65.5374 82.3301 68.5 83.0001C69.71 83.3101 71 84.1201 71 85.5001C71 86.8801 69.73 87.6801 68.5 88.0001Z" fill="#393C54"/>
<path d="M82.0503 58.1102C80.1457 58.5551 78.1519 58.4263 76.3203 57.7402" stroke="#393C54" stroke-width="2.21" stroke-miterlimit="10" stroke-linecap="round"/>
<path d="M75.4199 64.9999C75.5094 64.1899 75.8945 63.4413 76.5016 62.8976C77.1087 62.3539 77.895 62.0532 78.7099 62.0532C79.5249 62.0532 80.3112 62.3539 80.9183 62.8976C81.5253 63.4413 81.9105 64.1899 81.9999 64.9999C81.9999 66.8299 78.6899 79.3299 76.4899 79.3299C75.4199 79.2899 75.4199 66.7899 75.4199 64.9999Z" fill="#A7AECE"/>
<path d="M75.3701 45.0001C75.3701 45.8793 75.7194 46.7225 76.3411 47.3441C76.9627 47.9658 77.8059 48.3151 78.6851 48.3151C79.5643 48.3151 80.4075 47.9658 81.0292 47.3441C81.6509 46.7225 82.0001 45.8793 82.0001 45.0001C82.0001 43.1801 79.4101 35.0801 77.5901 35.0801C75.7701 35.0801 75.3701 43.1901 75.3701 45.0001Z" fill="#A7AECE"/>
<path d="M46.0098 52.8301H50.4198" stroke="#393C54" stroke-width="5.51" stroke-miterlimit="10" stroke-linecap="round"/>
<path d="M51.6795 57.7598C49.7839 58.4504 47.7237 58.5515 45.7695 58.0498" stroke="#393C54" stroke-width="2.21" stroke-miterlimit="10" stroke-linecap="round"/>
<path d="M52.63 45.0001C52.63 45.8793 52.2807 46.7225 51.6591 47.3441C51.0374 47.9658 50.1942 48.3151 49.315 48.3151C48.4358 48.3151 47.5926 47.9658 46.9709 47.3441C46.3493 46.7225 46 45.8793 46 45.0001C46 43.1801 48.59 35.0801 50.41 35.0801C52.23 35.0801 52.63 43.1901 52.63 45.0001Z" fill="#A7AECE"/>
<path d="M52.58 64.9999C52.4905 64.1899 52.1054 63.4413 51.4983 62.8976C50.8913 62.3539 50.105 62.0532 49.29 62.0532C48.475 62.0532 47.6887 62.3539 47.0817 62.8976C46.4746 63.4413 46.0895 64.1899 46 64.9999C46 66.8299 49.31 79.3299 51.51 79.3299C52.58 79.2899 52.58 66.7899 52.58 64.9999Z" fill="#A7AECE"/>
<path d="M68.4098 90.3201C68.4098 91.5401 66.4098 92.5301 63.9998 92.5301C61.5898 92.5301 59.5898 91.5301 59.5898 90.3201C59.5898 89.7001 61.5898 90.0501 63.9998 90.0501C66.4098 90.0501 68.4098 89.7001 68.4098 90.3201Z" fill="#A7AECE"/>
<path opacity="0.2" d="M84.13 36.1299C83.0926 33.5522 81.572 31.1966 79.65 29.1899C81.1 39.5099 80.28 52.8299 78.29 71.0499C76.2 90.1499 66.86 94.3499 57.29 95.0499C59.3466 95.6844 61.4879 96.0014 63.64 95.9899H64.42C73.62 95.8099 79.42 92.2699 84.16 75.3199C89 57.8999 87.76 44.8399 84.13 36.1299Z" fill="#393C54"/>
</svg>
